M48
;DRILL file {KiCad 4.0.5+dfsg1-4} date Tue Jul 10 09:58:03 2018
;FORMAT={-:-/ absolute / inch / decimal}
FMAT,2
INCH,TZ
T1C0.005
T2C0.016
T3C0.032
%
G90
G05
M72
T1
X6.0319Y-4.011
X6.0319Y-4.0307
X6.0319Y-4.0504
X6.0319Y-4.0701
X6.0319Y-4.0898
X6.0319Y-4.1094
X6.0319Y-4.1291
X6.0319Y-4.1488
X6.0319Y-4.1685
X6.0319Y-4.1882
X6.0319Y-4.2079
X6.0516Y-4.011
X6.0516Y-4.0307
X6.0516Y-4.0504
X6.0516Y-4.0701
X6.0516Y-4.0898
X6.0516Y-4.1094
X6.0516Y-4.1291
X6.0516Y-4.1488
X6.0516Y-4.1685
X6.0516Y-4.1882
X6.0516Y-4.2079
X6.0713Y-4.011
X6.0713Y-4.0307
X6.0713Y-4.1882
X6.0713Y-4.2079
X6.0909Y-4.011
X6.0909Y-4.0307
X6.0909Y-4.0898
X6.0909Y-4.1094
X6.0909Y-4.1291
X6.0909Y-4.1488
X6.0909Y-4.1882
X6.0909Y-4.2079
X6.1106Y-4.011
X6.1106Y-4.0307
X6.1106Y-4.0701
X6.1106Y-4.0898
X6.1106Y-4.1094
X6.1106Y-4.1291
X6.1106Y-4.1488
X6.1106Y-4.1882
X6.1106Y-4.2079
X6.1303Y-4.011
X6.1303Y-4.0307
X6.1303Y-4.0701
X6.1303Y-4.0898
X6.1303Y-4.1094
X6.1303Y-4.1291
X6.1303Y-4.1488
X6.1303Y-4.1882
X6.1303Y-4.2079
X6.15Y-4.011
X6.15Y-4.0307
X6.15Y-4.0701
X6.15Y-4.0898
X6.15Y-4.1094
X6.15Y-4.1291
X6.15Y-4.1488
X6.15Y-4.1882
X6.15Y-4.2079
X6.1697Y-4.011
X6.1697Y-4.0307
X6.1697Y-4.0701
X6.1697Y-4.0898
X6.1697Y-4.1094
X6.1697Y-4.1291
X6.1697Y-4.1488
X6.1697Y-4.1882
X6.1697Y-4.2079
X6.1894Y-4.011
X6.1894Y-4.0307
X6.1894Y-4.1882
X6.1894Y-4.2079
X6.2091Y-4.011
X6.2091Y-4.0307
X6.2091Y-4.0504
X6.2091Y-4.0701
X6.2091Y-4.0898
X6.2091Y-4.1094
X6.2091Y-4.1291
X6.2091Y-4.1488
X6.2091Y-4.1685
X6.2091Y-4.1882
X6.2091Y-4.2079
X6.2287Y-4.011
X6.2287Y-4.0307
X6.2287Y-4.0504
X6.2287Y-4.0701
X6.2287Y-4.0898
X6.2287Y-4.1094
X6.2287Y-4.1291
X6.2287Y-4.1488
X6.2287Y-4.1685
X6.2287Y-4.1882
X6.2287Y-4.2079
T2
X5.8894Y-4.0535
X5.9051Y-4.2031
X5.9976Y-4.2287
X6.0047Y-3.9071
X6.0461Y-3.824
X6.0638Y-4.3701
X6.1031Y-3.9567
X6.1063Y-3.9169
X6.1083Y-4.6709
X6.1102Y-4.3461
X6.1126Y-4.2713
X6.1213Y-3.5941
X6.1484Y-4.3441
X6.1606Y-3.835
X6.1638Y-3.7354
X6.1717Y-4.2465
X6.1795Y-4.3083
X6.1996Y-4.6559
X6.2331Y-3.5878
X6.2665Y-4.039
X6.2689Y-4.0984
X6.2689Y-4.3906
X6.3114Y-4.3205
X6.3406Y-4.1555
T3
X5.9551Y-3.7201
X5.9551Y-3.8201
T0
M30
