G04 #@! TF.FileFunction,Copper,L2,Bot,Signal*
%FSLAX46Y46*%
G04 Gerber Fmt 4.6, Leading zero omitted, Abs format (unit mm)*
G04 Created by KiCad (PCBNEW 4.0.5+dfsg1-4) date Tue Jul 10 09:58:08 2018*
%MOMM*%
%LPD*%
G01*
G04 APERTURE LIST*
%ADD10C,0.100000*%
%ADD11R,0.500000X0.600000*%
%ADD12R,0.600000X0.500000*%
%ADD13R,0.700000X1.150000*%
%ADD14R,0.400000X1.000000*%
%ADD15R,0.400000X0.600000*%
%ADD16R,0.600000X0.400000*%
%ADD17C,0.254000*%
%ADD18C,1.998980*%
%ADD19C,0.600000*%
%ADD20C,0.254000*%
G04 APERTURE END LIST*
D10*
D11*
X152930000Y-108220000D03*
X152930000Y-109320000D03*
D12*
X151860000Y-106820000D03*
X150760000Y-106820000D03*
D13*
X159470000Y-117820000D03*
D14*
X158800000Y-116990000D03*
X158300000Y-116990000D03*
X157800000Y-116990000D03*
X157300000Y-116990000D03*
X156800000Y-116990000D03*
X155300000Y-116990000D03*
X154800000Y-116990000D03*
X154300000Y-116990000D03*
X153800000Y-116990000D03*
X153300000Y-116990000D03*
D15*
X160550000Y-103270000D03*
X159650000Y-103270000D03*
X159680000Y-101500000D03*
X160580000Y-101500000D03*
X160550000Y-104970000D03*
X159650000Y-104970000D03*
X151975000Y-102175000D03*
X151075000Y-102175000D03*
X151970000Y-103790000D03*
X151070000Y-103790000D03*
X151070000Y-105310000D03*
X151970000Y-105310000D03*
X159710000Y-106590000D03*
X160610000Y-106590000D03*
D16*
X156030000Y-109030000D03*
X156030000Y-108130000D03*
X160490000Y-108120000D03*
X160490000Y-109020000D03*
X159010000Y-108110000D03*
X159010000Y-109010000D03*
X157510000Y-108990000D03*
X157510000Y-108090000D03*
X154440000Y-108120000D03*
X154440000Y-109020000D03*
D17*
X153210000Y-101880000D03*
X153710000Y-101880000D03*
X154210000Y-101880000D03*
X154710000Y-101880000D03*
X155210000Y-101880000D03*
X155710000Y-101880000D03*
X156210000Y-101880000D03*
X156710000Y-101880000D03*
X157210000Y-101880000D03*
X157710000Y-101880000D03*
X158210000Y-101880000D03*
X153210000Y-102380000D03*
X153710000Y-102380000D03*
X154210000Y-102380000D03*
X154710000Y-102380000D03*
X155210000Y-102380000D03*
X155710000Y-102380000D03*
X156210000Y-102380000D03*
X156710000Y-102380000D03*
X157210000Y-102380000D03*
X157710000Y-102380000D03*
X158210000Y-102380000D03*
X153210000Y-102880000D03*
X153710000Y-102880000D03*
X157710000Y-102880000D03*
X158210000Y-102880000D03*
X153210000Y-103380000D03*
X153710000Y-103380000D03*
X155210000Y-103380000D03*
X155710000Y-103380000D03*
X156210000Y-103380000D03*
X156710000Y-103380000D03*
X157710000Y-103380000D03*
X158210000Y-103380000D03*
X153210000Y-103880000D03*
X153710000Y-103880000D03*
X154710000Y-103880000D03*
X155210000Y-103880000D03*
X155710000Y-103880000D03*
X156210000Y-103880000D03*
X156710000Y-103880000D03*
X157710000Y-103880000D03*
X158210000Y-103880000D03*
X153210000Y-104380000D03*
X153710000Y-104380000D03*
X154710000Y-104380000D03*
X155210000Y-104380000D03*
X155710000Y-104380000D03*
X156210000Y-104380000D03*
X156710000Y-104380000D03*
X157710000Y-104380000D03*
X158210000Y-104380000D03*
X153210000Y-104880000D03*
X153710000Y-104880000D03*
X154710000Y-104880000D03*
X155210000Y-104880000D03*
X155710000Y-104880000D03*
X156210000Y-104880000D03*
X156710000Y-104880000D03*
X157710000Y-104880000D03*
X158210000Y-104880000D03*
X153210000Y-105380000D03*
X153710000Y-105380000D03*
X154710000Y-105380000D03*
X155210000Y-105380000D03*
X155710000Y-105380000D03*
X156210000Y-105380000D03*
X156710000Y-105380000D03*
X157710000Y-105380000D03*
X158210000Y-105380000D03*
X153210000Y-105880000D03*
X153710000Y-105880000D03*
X157710000Y-105880000D03*
X158210000Y-105880000D03*
X153210000Y-106380000D03*
X153710000Y-106380000D03*
X154210000Y-106380000D03*
X154710000Y-106380000D03*
X155210000Y-106380000D03*
X155710000Y-106380000D03*
X156210000Y-106380000D03*
X156710000Y-106380000D03*
X157210000Y-106380000D03*
X157710000Y-106380000D03*
X158210000Y-106380000D03*
X153210000Y-106880000D03*
X153710000Y-106880000D03*
X154210000Y-106880000D03*
X154710000Y-106880000D03*
X155210000Y-106880000D03*
X155710000Y-106880000D03*
X156210000Y-106880000D03*
X156710000Y-106880000D03*
X157210000Y-106880000D03*
X157710000Y-106880000D03*
X158210000Y-106880000D03*
D18*
X151260000Y-94490000D03*
X151260000Y-97030000D03*
D19*
X155260000Y-108490000D03*
X160310000Y-109740000D03*
X149990000Y-106760000D03*
X156960000Y-109430000D03*
X156170000Y-110340000D03*
X155200000Y-110390000D03*
X154020000Y-111000000D03*
X161050000Y-105550000D03*
X152520000Y-99240000D03*
X153570000Y-97130000D03*
X157470000Y-118260000D03*
X158320000Y-91130000D03*
X149590000Y-102960000D03*
X155150000Y-118640000D03*
X159230000Y-111520000D03*
X159170000Y-102590000D03*
X159230000Y-104100000D03*
X155020000Y-100500000D03*
X156560000Y-94880000D03*
X155480000Y-91290000D03*
X156760000Y-107860000D03*
X152340000Y-107410000D03*
X156480000Y-97410000D03*
X155100000Y-99490000D03*
D10*
X155260000Y-108490000D02*
X154730000Y-109020000D01*
X154730000Y-109020000D02*
X154440000Y-109020000D01*
X160490000Y-109020000D02*
X160490000Y-109560000D01*
X160490000Y-109560000D02*
X160310000Y-109740000D01*
X150050000Y-106820000D02*
X150760000Y-106820000D01*
X149990000Y-106760000D02*
X150050000Y-106820000D01*
X157510000Y-108990000D02*
X157510000Y-109350000D01*
X157430000Y-109430000D02*
X156960000Y-109430000D01*
X157510000Y-109350000D02*
X157430000Y-109430000D01*
X154920000Y-110110000D02*
X154920000Y-109890000D01*
X156960000Y-109430000D02*
X156170000Y-110220000D01*
X156170000Y-110220000D02*
X156170000Y-110340000D01*
X155200000Y-110390000D02*
X154920000Y-110110000D01*
X153980000Y-109890000D02*
X153980000Y-110960000D01*
X153980000Y-110960000D02*
X154020000Y-111000000D01*
X153500000Y-109890000D02*
X152930000Y-109320000D01*
X160960000Y-105640000D02*
X160310000Y-105640000D01*
X161050000Y-105550000D02*
X160960000Y-105640000D01*
X156030000Y-109030000D02*
X156010000Y-109030000D01*
X156010000Y-109030000D02*
X155150000Y-109890000D01*
X155150000Y-109890000D02*
X154920000Y-109890000D01*
X154920000Y-109890000D02*
X153980000Y-109890000D01*
X153980000Y-109890000D02*
X153500000Y-109890000D01*
X157710000Y-105380000D02*
X157710000Y-105410000D01*
X157710000Y-105410000D02*
X157940000Y-105640000D01*
X157940000Y-105640000D02*
X160310000Y-105640000D01*
X160310000Y-105640000D02*
X160550000Y-105400000D01*
X160550000Y-105400000D02*
X160550000Y-104970000D01*
X159010000Y-109010000D02*
X157530000Y-109010000D01*
X157530000Y-109010000D02*
X157510000Y-108990000D01*
X153570000Y-97130000D02*
X153570000Y-98190000D01*
X153570000Y-98190000D02*
X152520000Y-99240000D01*
X153570000Y-97130000D02*
X153470000Y-97030000D01*
X158210000Y-103380000D02*
X158950000Y-103380000D01*
X160120000Y-103700000D02*
X160550000Y-103270000D01*
X159270000Y-103700000D02*
X160120000Y-103700000D01*
X158950000Y-103380000D02*
X159270000Y-103700000D01*
X158210000Y-103380000D02*
X158210000Y-102880000D01*
X158210000Y-102380000D02*
X158190000Y-102380000D01*
X158190000Y-102380000D02*
X157930000Y-102120000D01*
X157930000Y-102120000D02*
X156970000Y-102120000D01*
X156970000Y-102120000D02*
X156710000Y-102380000D01*
X156710000Y-102380000D02*
X156710000Y-103380000D01*
X156710000Y-105380000D02*
X156710000Y-104880000D01*
X152930000Y-108220000D02*
X152930000Y-105660000D01*
X152930000Y-105660000D02*
X153210000Y-105380000D01*
X157300000Y-117770000D02*
X157300000Y-118090000D01*
X157300000Y-118090000D02*
X157470000Y-118260000D01*
X154800000Y-116990000D02*
X154800000Y-117690000D01*
X157300000Y-117790000D02*
X157300000Y-117770000D01*
X157300000Y-117770000D02*
X157300000Y-116990000D01*
X156840000Y-118250000D02*
X157300000Y-117790000D01*
X155360000Y-118250000D02*
X156840000Y-118250000D01*
X154800000Y-117690000D02*
X155360000Y-118250000D01*
X149590000Y-102960000D02*
X149590000Y-93400000D01*
X158320000Y-91070000D02*
X158320000Y-91130000D01*
X157860000Y-90610000D02*
X158320000Y-91070000D01*
X152380000Y-90610000D02*
X157860000Y-90610000D01*
X149590000Y-93400000D02*
X152380000Y-90610000D01*
X149730000Y-103100000D02*
X150180000Y-103100000D01*
X149590000Y-102960000D02*
X149730000Y-103100000D01*
X151075000Y-102175000D02*
X151075000Y-102205000D01*
X151075000Y-102205000D02*
X150180000Y-103100000D01*
X150180000Y-103100000D02*
X150180000Y-105490000D01*
X150180000Y-105490000D02*
X150790000Y-106100000D01*
X150790000Y-106100000D02*
X151860000Y-106100000D01*
X153210000Y-104880000D02*
X152680000Y-104880000D01*
X151540000Y-104260000D02*
X151070000Y-103790000D01*
X152060000Y-104260000D02*
X151540000Y-104260000D01*
X152680000Y-104880000D02*
X152060000Y-104260000D01*
X151860000Y-106230000D02*
X151860000Y-106100000D01*
X151860000Y-106100000D02*
X151070000Y-105310000D01*
X151860000Y-106820000D02*
X151860000Y-106230000D01*
X151860000Y-106230000D02*
X153210000Y-104880000D01*
X154530000Y-119260000D02*
X155150000Y-118640000D01*
X152640000Y-119260000D02*
X154530000Y-119260000D01*
X151720000Y-118340000D02*
X152640000Y-119260000D01*
X151720000Y-117240000D02*
X151720000Y-118340000D01*
X152750000Y-116210000D02*
X151720000Y-117240000D01*
X152750000Y-113300000D02*
X152750000Y-116210000D01*
X153600000Y-112450000D02*
X152750000Y-113300000D01*
X158300000Y-112450000D02*
X153600000Y-112450000D01*
X159230000Y-111520000D02*
X158300000Y-112450000D01*
X157710000Y-106880000D02*
X157830000Y-106880000D01*
X157830000Y-106880000D02*
X158700000Y-107750000D01*
X156800000Y-116250000D02*
X156800000Y-116990000D01*
X156910000Y-116140000D02*
X156800000Y-116250000D01*
X157270000Y-116140000D02*
X156910000Y-116140000D01*
X158770000Y-114640000D02*
X157270000Y-116140000D01*
X158770000Y-112890000D02*
X158770000Y-114640000D01*
X159810000Y-111850000D02*
X158770000Y-112890000D01*
X159810000Y-108230000D02*
X159810000Y-111850000D01*
X159330000Y-107750000D02*
X159810000Y-108230000D01*
X158700000Y-107750000D02*
X159330000Y-107750000D01*
X159650000Y-103270000D02*
X159650000Y-103070000D01*
X159650000Y-103070000D02*
X159170000Y-102590000D01*
X159680000Y-101500000D02*
X159550000Y-101500000D01*
X159550000Y-101500000D02*
X158420000Y-102630000D01*
X158420000Y-102630000D02*
X157570000Y-102630000D01*
X157570000Y-102630000D02*
X157300000Y-102900000D01*
X157300000Y-102900000D02*
X157300000Y-102970000D01*
X157300000Y-102970000D02*
X157710000Y-103380000D01*
X159650000Y-104970000D02*
X158640000Y-104970000D01*
X157970000Y-105140000D02*
X157710000Y-104880000D01*
X158470000Y-105140000D02*
X157970000Y-105140000D01*
X158640000Y-104970000D02*
X158470000Y-105140000D01*
X151975000Y-102175000D02*
X152005000Y-102175000D01*
X152005000Y-102175000D02*
X152950000Y-103120000D01*
X152950000Y-103120000D02*
X153950000Y-103120000D01*
X153950000Y-103120000D02*
X154710000Y-103880000D01*
X156470000Y-103640000D02*
X156210000Y-103380000D01*
X158770000Y-103640000D02*
X156470000Y-103640000D01*
X159230000Y-104100000D02*
X158770000Y-103640000D01*
X151970000Y-103790000D02*
X152660000Y-103790000D01*
X154950000Y-103640000D02*
X155210000Y-103380000D01*
X154950000Y-104020000D02*
X154950000Y-103640000D01*
X154830000Y-104140000D02*
X154950000Y-104020000D01*
X154520000Y-104140000D02*
X154830000Y-104140000D01*
X154050000Y-104610000D02*
X154520000Y-104140000D01*
X153570000Y-104610000D02*
X154050000Y-104610000D01*
X153470000Y-104510000D02*
X153570000Y-104610000D01*
X153470000Y-104230000D02*
X153470000Y-104510000D01*
X153360000Y-104120000D02*
X153470000Y-104230000D01*
X152990000Y-104120000D02*
X153360000Y-104120000D01*
X152660000Y-103790000D02*
X152990000Y-104120000D01*
X151970000Y-105310000D02*
X151970000Y-104900000D01*
X153460000Y-103630000D02*
X153710000Y-103380000D01*
X153000000Y-103630000D02*
X153460000Y-103630000D01*
X152410000Y-103040000D02*
X153000000Y-103630000D01*
X150900000Y-103040000D02*
X152410000Y-103040000D01*
X150450000Y-103490000D02*
X150900000Y-103040000D01*
X150450000Y-104180000D02*
X150450000Y-103490000D01*
X150850000Y-104580000D02*
X150450000Y-104180000D01*
X151650000Y-104580000D02*
X150850000Y-104580000D01*
X151970000Y-104900000D02*
X151650000Y-104580000D01*
X155020000Y-100500000D02*
X155020000Y-101490000D01*
X155020000Y-101490000D02*
X154710000Y-101800000D01*
X154710000Y-101800000D02*
X154710000Y-101880000D01*
X156560000Y-92370000D02*
X156560000Y-94880000D01*
X155480000Y-91290000D02*
X156560000Y-92370000D01*
X159710000Y-106590000D02*
X158960000Y-106590000D01*
X157950000Y-104140000D02*
X158210000Y-103880000D01*
X157560000Y-104140000D02*
X157950000Y-104140000D01*
X157390000Y-104310000D02*
X157560000Y-104140000D01*
X157390000Y-105940000D02*
X157390000Y-104310000D01*
X157580000Y-106130000D02*
X157390000Y-105940000D01*
X158500000Y-106130000D02*
X157580000Y-106130000D01*
X158960000Y-106590000D02*
X158500000Y-106130000D01*
X154670000Y-107340000D02*
X154210000Y-106880000D01*
X156240000Y-107340000D02*
X154670000Y-107340000D01*
X156760000Y-107860000D02*
X156240000Y-107340000D01*
X156030000Y-108130000D02*
X156030000Y-108320000D01*
X156030000Y-108320000D02*
X154760000Y-109590000D01*
X154760000Y-109590000D02*
X154160000Y-109590000D01*
X154160000Y-109590000D02*
X153460000Y-108890000D01*
X153460000Y-108890000D02*
X153460000Y-106630000D01*
X153460000Y-106630000D02*
X153710000Y-106380000D01*
X160490000Y-108120000D02*
X159940000Y-108120000D01*
X155460000Y-106630000D02*
X155210000Y-106380000D01*
X158450000Y-106630000D02*
X155460000Y-106630000D01*
X159940000Y-108120000D02*
X158450000Y-106630000D01*
X159010000Y-108110000D02*
X158600000Y-108110000D01*
X155490000Y-107160000D02*
X155210000Y-106880000D01*
X157650000Y-107160000D02*
X155490000Y-107160000D01*
X158600000Y-108110000D02*
X157650000Y-107160000D01*
X153710000Y-103880000D02*
X153710000Y-104380000D01*
X152730000Y-110130000D02*
X152730000Y-110520000D01*
X157510000Y-108310000D02*
X155690000Y-110130000D01*
X152730000Y-110130000D02*
X152240000Y-109640000D01*
X152240000Y-109640000D02*
X152240000Y-107510000D01*
X152240000Y-107510000D02*
X152340000Y-107410000D01*
X157510000Y-108310000D02*
X157510000Y-108090000D01*
X155690000Y-111000000D02*
X155690000Y-110130000D01*
X155120000Y-111570000D02*
X155690000Y-111000000D01*
X153780000Y-111570000D02*
X155120000Y-111570000D01*
X152730000Y-110520000D02*
X153780000Y-111570000D01*
X154440000Y-108120000D02*
X154440000Y-107680000D01*
X153980000Y-105150000D02*
X153710000Y-104880000D01*
X153980000Y-107220000D02*
X153980000Y-105150000D01*
X154440000Y-107680000D02*
X153980000Y-107220000D01*
X154210000Y-99680000D02*
X154210000Y-101880000D01*
X156480000Y-97410000D02*
X154210000Y-99680000D01*
X156210000Y-101880000D02*
X156210000Y-102380000D01*
X156210000Y-101880000D02*
X156710000Y-101880000D01*
X155100000Y-99490000D02*
X156710000Y-101100000D01*
X156710000Y-101100000D02*
X156710000Y-101880000D01*
D20*
G36*
X163315000Y-116315000D02*
X160350000Y-116315000D01*
X160087862Y-116367143D01*
X159865632Y-116515632D01*
X159810890Y-116597560D01*
X159635000Y-116597560D01*
X159635000Y-116363690D01*
X159538327Y-116130301D01*
X159359698Y-115951673D01*
X159126309Y-115855000D01*
X159058750Y-115855000D01*
X158911277Y-116002473D01*
X158751890Y-115893569D01*
X158530084Y-115848652D01*
X159254368Y-115124368D01*
X159402857Y-114902138D01*
X159455000Y-114640000D01*
X159455000Y-113173736D01*
X160294368Y-112334368D01*
X160442857Y-112112138D01*
X160495000Y-111850000D01*
X160495000Y-109855000D01*
X160617002Y-109855000D01*
X160617002Y-109696252D01*
X160775750Y-109855000D01*
X160916310Y-109855000D01*
X161149699Y-109758327D01*
X161328327Y-109579698D01*
X161425000Y-109346309D01*
X161425000Y-109278750D01*
X161266250Y-109120000D01*
X160617000Y-109120000D01*
X160617000Y-109167000D01*
X160495000Y-109167000D01*
X160495000Y-108967440D01*
X160790000Y-108967440D01*
X161025317Y-108923162D01*
X161030231Y-108920000D01*
X161266250Y-108920000D01*
X161425000Y-108761250D01*
X161425000Y-108693691D01*
X161379033Y-108582717D01*
X161386431Y-108571890D01*
X161437440Y-108320000D01*
X161437440Y-107920000D01*
X161393162Y-107684683D01*
X161254090Y-107468559D01*
X161180053Y-107417972D01*
X161348327Y-107249699D01*
X161445000Y-107016310D01*
X161445000Y-106875750D01*
X161286250Y-106717000D01*
X160710000Y-106717000D01*
X160710000Y-106737000D01*
X160557440Y-106737000D01*
X160557440Y-106290000D01*
X160513162Y-106054683D01*
X160510000Y-106049769D01*
X160510000Y-105813750D01*
X160446250Y-105750000D01*
X160450000Y-105746250D01*
X160450000Y-105504266D01*
X160497440Y-105270000D01*
X160497440Y-105097000D01*
X160650000Y-105097000D01*
X160650000Y-105746250D01*
X160713750Y-105810000D01*
X160710000Y-105813750D01*
X160710000Y-106463000D01*
X161286250Y-106463000D01*
X161445000Y-106304250D01*
X161445000Y-106163690D01*
X161348327Y-105930301D01*
X161169698Y-105751673D01*
X161167332Y-105750693D01*
X161288327Y-105629699D01*
X161385000Y-105396310D01*
X161385000Y-105255750D01*
X161226250Y-105097000D01*
X160650000Y-105097000D01*
X160497440Y-105097000D01*
X160497440Y-104670000D01*
X160453162Y-104434683D01*
X160450000Y-104429769D01*
X160450000Y-104193750D01*
X160376250Y-104120000D01*
X160450000Y-104046250D01*
X160450000Y-103804266D01*
X160497440Y-103570000D01*
X160497440Y-103397000D01*
X160650000Y-103397000D01*
X160650000Y-104046250D01*
X160723750Y-104120000D01*
X160650000Y-104193750D01*
X160650000Y-104843000D01*
X161226250Y-104843000D01*
X161385000Y-104684250D01*
X161385000Y-104543690D01*
X161288327Y-104310301D01*
X161109698Y-104131673D01*
X161081517Y-104120000D01*
X161109698Y-104108327D01*
X161288327Y-103929699D01*
X161385000Y-103696310D01*
X161385000Y-103555750D01*
X161226250Y-103397000D01*
X160650000Y-103397000D01*
X160497440Y-103397000D01*
X160497440Y-102970000D01*
X160453162Y-102734683D01*
X160450000Y-102729769D01*
X160450000Y-102493750D01*
X160650000Y-102493750D01*
X160650000Y-103143000D01*
X161226250Y-103143000D01*
X161385000Y-102984250D01*
X161385000Y-102843690D01*
X161288327Y-102610301D01*
X161109698Y-102431673D01*
X161012020Y-102391213D01*
X161139698Y-102338327D01*
X161318327Y-102159699D01*
X161415000Y-101926310D01*
X161415000Y-101785750D01*
X161256250Y-101627000D01*
X160680000Y-101627000D01*
X160680000Y-102276250D01*
X160773750Y-102370000D01*
X160650000Y-102493750D01*
X160450000Y-102493750D01*
X160356250Y-102400000D01*
X160480000Y-102276250D01*
X160480000Y-102034266D01*
X160527440Y-101800000D01*
X160527440Y-101200000D01*
X160483162Y-100964683D01*
X160480000Y-100959769D01*
X160480000Y-100723750D01*
X160680000Y-100723750D01*
X160680000Y-101373000D01*
X161256250Y-101373000D01*
X161415000Y-101214250D01*
X161415000Y-101073690D01*
X161318327Y-100840301D01*
X161139698Y-100661673D01*
X160906309Y-100565000D01*
X160838750Y-100565000D01*
X160680000Y-100723750D01*
X160480000Y-100723750D01*
X160321250Y-100565000D01*
X160253691Y-100565000D01*
X160142717Y-100610967D01*
X160131890Y-100603569D01*
X159880000Y-100552560D01*
X159480000Y-100552560D01*
X159244683Y-100596838D01*
X159028559Y-100735910D01*
X158883569Y-100948110D01*
X158832560Y-101200000D01*
X158832560Y-101248704D01*
X158753244Y-101328020D01*
X158667808Y-101242584D01*
X158607218Y-101303174D01*
X158613766Y-101216230D01*
X158329018Y-101112243D01*
X158026150Y-101125139D01*
X157952538Y-101155630D01*
X157862236Y-101118133D01*
X157559094Y-101117868D01*
X157460103Y-101158771D01*
X157395000Y-101131738D01*
X157395000Y-101100000D01*
X157342857Y-100837862D01*
X157194368Y-100615632D01*
X156035030Y-99456294D01*
X156035162Y-99304833D01*
X155894451Y-98964285D01*
X156513706Y-98345030D01*
X156665167Y-98345162D01*
X157008943Y-98203117D01*
X157272192Y-97940327D01*
X157414838Y-97596799D01*
X157415162Y-97224833D01*
X157273117Y-96881057D01*
X157010327Y-96617808D01*
X156666799Y-96475162D01*
X156294833Y-96474838D01*
X155951057Y-96616883D01*
X155687808Y-96879673D01*
X155545162Y-97223201D01*
X155545029Y-97376235D01*
X153725632Y-99195632D01*
X153577143Y-99417862D01*
X153525000Y-99680000D01*
X153525000Y-101131955D01*
X153458377Y-101159484D01*
X153329018Y-101112243D01*
X153026150Y-101125139D01*
X152806234Y-101216230D01*
X152820096Y-101400293D01*
X153006648Y-101586845D01*
X152980236Y-101650452D01*
X152916843Y-101676646D01*
X152730293Y-101490096D01*
X152679441Y-101486266D01*
X152639090Y-101423559D01*
X152426890Y-101278569D01*
X152175000Y-101227560D01*
X151775000Y-101227560D01*
X151539683Y-101271838D01*
X151528021Y-101279342D01*
X151526890Y-101278569D01*
X151275000Y-101227560D01*
X150875000Y-101227560D01*
X150639683Y-101271838D01*
X150423559Y-101410910D01*
X150278569Y-101623110D01*
X150275000Y-101640734D01*
X150275000Y-98194608D01*
X150287444Y-98182164D01*
X150386042Y-98448965D01*
X150995582Y-98675401D01*
X151645377Y-98651341D01*
X152133958Y-98448965D01*
X152232557Y-98182163D01*
X151260000Y-97209605D01*
X151245858Y-97223748D01*
X151066252Y-97044142D01*
X151080395Y-97030000D01*
X151439605Y-97030000D01*
X152412163Y-98002557D01*
X152678965Y-97903958D01*
X152905401Y-97294418D01*
X152881341Y-96644623D01*
X152678965Y-96156042D01*
X152412163Y-96057443D01*
X151439605Y-97030000D01*
X151080395Y-97030000D01*
X151066252Y-97015858D01*
X151245858Y-96836252D01*
X151260000Y-96850395D01*
X152232557Y-95877837D01*
X152219276Y-95841901D01*
X152644846Y-95417073D01*
X152894206Y-94816547D01*
X152894774Y-94166306D01*
X152646462Y-93565345D01*
X152187073Y-93105154D01*
X151586547Y-92855794D01*
X151103364Y-92855372D01*
X152663736Y-91295000D01*
X154544995Y-91295000D01*
X154544838Y-91475167D01*
X154686883Y-91818943D01*
X154949673Y-92082192D01*
X155293201Y-92224838D01*
X155446235Y-92224971D01*
X155875000Y-92653736D01*
X155875000Y-94242668D01*
X155767808Y-94349673D01*
X155625162Y-94693201D01*
X155624838Y-95065167D01*
X155766883Y-95408943D01*
X156029673Y-95672192D01*
X156373201Y-95814838D01*
X156745167Y-95815162D01*
X157088943Y-95673117D01*
X157352192Y-95410327D01*
X157494838Y-95066799D01*
X157495162Y-94694833D01*
X157353117Y-94351057D01*
X157245000Y-94242751D01*
X157245000Y-92370000D01*
X157192857Y-92107862D01*
X157044368Y-91885632D01*
X156453736Y-91295000D01*
X157384856Y-91295000D01*
X157384838Y-91315167D01*
X157526883Y-91658943D01*
X157789673Y-91922192D01*
X158133201Y-92064838D01*
X158505167Y-92065162D01*
X158848943Y-91923117D01*
X159112192Y-91660327D01*
X159254838Y-91316799D01*
X159255162Y-90944833D01*
X159113117Y-90601057D01*
X158850327Y-90337808D01*
X158506799Y-90195162D01*
X158413817Y-90195081D01*
X158403736Y-90185000D01*
X163315000Y-90185000D01*
X163315000Y-116315000D01*
X163315000Y-116315000D01*
G37*
X163315000Y-116315000D02*
X160350000Y-116315000D01*
X160087862Y-116367143D01*
X159865632Y-116515632D01*
X159810890Y-116597560D01*
X159635000Y-116597560D01*
X159635000Y-116363690D01*
X159538327Y-116130301D01*
X159359698Y-115951673D01*
X159126309Y-115855000D01*
X159058750Y-115855000D01*
X158911277Y-116002473D01*
X158751890Y-115893569D01*
X158530084Y-115848652D01*
X159254368Y-115124368D01*
X159402857Y-114902138D01*
X159455000Y-114640000D01*
X159455000Y-113173736D01*
X160294368Y-112334368D01*
X160442857Y-112112138D01*
X160495000Y-111850000D01*
X160495000Y-109855000D01*
X160617002Y-109855000D01*
X160617002Y-109696252D01*
X160775750Y-109855000D01*
X160916310Y-109855000D01*
X161149699Y-109758327D01*
X161328327Y-109579698D01*
X161425000Y-109346309D01*
X161425000Y-109278750D01*
X161266250Y-109120000D01*
X160617000Y-109120000D01*
X160617000Y-109167000D01*
X160495000Y-109167000D01*
X160495000Y-108967440D01*
X160790000Y-108967440D01*
X161025317Y-108923162D01*
X161030231Y-108920000D01*
X161266250Y-108920000D01*
X161425000Y-108761250D01*
X161425000Y-108693691D01*
X161379033Y-108582717D01*
X161386431Y-108571890D01*
X161437440Y-108320000D01*
X161437440Y-107920000D01*
X161393162Y-107684683D01*
X161254090Y-107468559D01*
X161180053Y-107417972D01*
X161348327Y-107249699D01*
X161445000Y-107016310D01*
X161445000Y-106875750D01*
X161286250Y-106717000D01*
X160710000Y-106717000D01*
X160710000Y-106737000D01*
X160557440Y-106737000D01*
X160557440Y-106290000D01*
X160513162Y-106054683D01*
X160510000Y-106049769D01*
X160510000Y-105813750D01*
X160446250Y-105750000D01*
X160450000Y-105746250D01*
X160450000Y-105504266D01*
X160497440Y-105270000D01*
X160497440Y-105097000D01*
X160650000Y-105097000D01*
X160650000Y-105746250D01*
X160713750Y-105810000D01*
X160710000Y-105813750D01*
X160710000Y-106463000D01*
X161286250Y-106463000D01*
X161445000Y-106304250D01*
X161445000Y-106163690D01*
X161348327Y-105930301D01*
X161169698Y-105751673D01*
X161167332Y-105750693D01*
X161288327Y-105629699D01*
X161385000Y-105396310D01*
X161385000Y-105255750D01*
X161226250Y-105097000D01*
X160650000Y-105097000D01*
X160497440Y-105097000D01*
X160497440Y-104670000D01*
X160453162Y-104434683D01*
X160450000Y-104429769D01*
X160450000Y-104193750D01*
X160376250Y-104120000D01*
X160450000Y-104046250D01*
X160450000Y-103804266D01*
X160497440Y-103570000D01*
X160497440Y-103397000D01*
X160650000Y-103397000D01*
X160650000Y-104046250D01*
X160723750Y-104120000D01*
X160650000Y-104193750D01*
X160650000Y-104843000D01*
X161226250Y-104843000D01*
X161385000Y-104684250D01*
X161385000Y-104543690D01*
X161288327Y-104310301D01*
X161109698Y-104131673D01*
X161081517Y-104120000D01*
X161109698Y-104108327D01*
X161288327Y-103929699D01*
X161385000Y-103696310D01*
X161385000Y-103555750D01*
X161226250Y-103397000D01*
X160650000Y-103397000D01*
X160497440Y-103397000D01*
X160497440Y-102970000D01*
X160453162Y-102734683D01*
X160450000Y-102729769D01*
X160450000Y-102493750D01*
X160650000Y-102493750D01*
X160650000Y-103143000D01*
X161226250Y-103143000D01*
X161385000Y-102984250D01*
X161385000Y-102843690D01*
X161288327Y-102610301D01*
X161109698Y-102431673D01*
X161012020Y-102391213D01*
X161139698Y-102338327D01*
X161318327Y-102159699D01*
X161415000Y-101926310D01*
X161415000Y-101785750D01*
X161256250Y-101627000D01*
X160680000Y-101627000D01*
X160680000Y-102276250D01*
X160773750Y-102370000D01*
X160650000Y-102493750D01*
X160450000Y-102493750D01*
X160356250Y-102400000D01*
X160480000Y-102276250D01*
X160480000Y-102034266D01*
X160527440Y-101800000D01*
X160527440Y-101200000D01*
X160483162Y-100964683D01*
X160480000Y-100959769D01*
X160480000Y-100723750D01*
X160680000Y-100723750D01*
X160680000Y-101373000D01*
X161256250Y-101373000D01*
X161415000Y-101214250D01*
X161415000Y-101073690D01*
X161318327Y-100840301D01*
X161139698Y-100661673D01*
X160906309Y-100565000D01*
X160838750Y-100565000D01*
X160680000Y-100723750D01*
X160480000Y-100723750D01*
X160321250Y-100565000D01*
X160253691Y-100565000D01*
X160142717Y-100610967D01*
X160131890Y-100603569D01*
X159880000Y-100552560D01*
X159480000Y-100552560D01*
X159244683Y-100596838D01*
X159028559Y-100735910D01*
X158883569Y-100948110D01*
X158832560Y-101200000D01*
X158832560Y-101248704D01*
X158753244Y-101328020D01*
X158667808Y-101242584D01*
X158607218Y-101303174D01*
X158613766Y-101216230D01*
X158329018Y-101112243D01*
X158026150Y-101125139D01*
X157952538Y-101155630D01*
X157862236Y-101118133D01*
X157559094Y-101117868D01*
X157460103Y-101158771D01*
X157395000Y-101131738D01*
X157395000Y-101100000D01*
X157342857Y-100837862D01*
X157194368Y-100615632D01*
X156035030Y-99456294D01*
X156035162Y-99304833D01*
X155894451Y-98964285D01*
X156513706Y-98345030D01*
X156665167Y-98345162D01*
X157008943Y-98203117D01*
X157272192Y-97940327D01*
X157414838Y-97596799D01*
X157415162Y-97224833D01*
X157273117Y-96881057D01*
X157010327Y-96617808D01*
X156666799Y-96475162D01*
X156294833Y-96474838D01*
X155951057Y-96616883D01*
X155687808Y-96879673D01*
X155545162Y-97223201D01*
X155545029Y-97376235D01*
X153725632Y-99195632D01*
X153577143Y-99417862D01*
X153525000Y-99680000D01*
X153525000Y-101131955D01*
X153458377Y-101159484D01*
X153329018Y-101112243D01*
X153026150Y-101125139D01*
X152806234Y-101216230D01*
X152820096Y-101400293D01*
X153006648Y-101586845D01*
X152980236Y-101650452D01*
X152916843Y-101676646D01*
X152730293Y-101490096D01*
X152679441Y-101486266D01*
X152639090Y-101423559D01*
X152426890Y-101278569D01*
X152175000Y-101227560D01*
X151775000Y-101227560D01*
X151539683Y-101271838D01*
X151528021Y-101279342D01*
X151526890Y-101278569D01*
X151275000Y-101227560D01*
X150875000Y-101227560D01*
X150639683Y-101271838D01*
X150423559Y-101410910D01*
X150278569Y-101623110D01*
X150275000Y-101640734D01*
X150275000Y-98194608D01*
X150287444Y-98182164D01*
X150386042Y-98448965D01*
X150995582Y-98675401D01*
X151645377Y-98651341D01*
X152133958Y-98448965D01*
X152232557Y-98182163D01*
X151260000Y-97209605D01*
X151245858Y-97223748D01*
X151066252Y-97044142D01*
X151080395Y-97030000D01*
X151439605Y-97030000D01*
X152412163Y-98002557D01*
X152678965Y-97903958D01*
X152905401Y-97294418D01*
X152881341Y-96644623D01*
X152678965Y-96156042D01*
X152412163Y-96057443D01*
X151439605Y-97030000D01*
X151080395Y-97030000D01*
X151066252Y-97015858D01*
X151245858Y-96836252D01*
X151260000Y-96850395D01*
X152232557Y-95877837D01*
X152219276Y-95841901D01*
X152644846Y-95417073D01*
X152894206Y-94816547D01*
X152894774Y-94166306D01*
X152646462Y-93565345D01*
X152187073Y-93105154D01*
X151586547Y-92855794D01*
X151103364Y-92855372D01*
X152663736Y-91295000D01*
X154544995Y-91295000D01*
X154544838Y-91475167D01*
X154686883Y-91818943D01*
X154949673Y-92082192D01*
X155293201Y-92224838D01*
X155446235Y-92224971D01*
X155875000Y-92653736D01*
X155875000Y-94242668D01*
X155767808Y-94349673D01*
X155625162Y-94693201D01*
X155624838Y-95065167D01*
X155766883Y-95408943D01*
X156029673Y-95672192D01*
X156373201Y-95814838D01*
X156745167Y-95815162D01*
X157088943Y-95673117D01*
X157352192Y-95410327D01*
X157494838Y-95066799D01*
X157495162Y-94694833D01*
X157353117Y-94351057D01*
X157245000Y-94242751D01*
X157245000Y-92370000D01*
X157192857Y-92107862D01*
X157044368Y-91885632D01*
X156453736Y-91295000D01*
X157384856Y-91295000D01*
X157384838Y-91315167D01*
X157526883Y-91658943D01*
X157789673Y-91922192D01*
X158133201Y-92064838D01*
X158505167Y-92065162D01*
X158848943Y-91923117D01*
X159112192Y-91660327D01*
X159254838Y-91316799D01*
X159255162Y-90944833D01*
X159113117Y-90601057D01*
X158850327Y-90337808D01*
X158506799Y-90195162D01*
X158413817Y-90195081D01*
X158403736Y-90185000D01*
X163315000Y-90185000D01*
X163315000Y-116315000D01*
G36*
X149105632Y-92915632D02*
X148957143Y-93137862D01*
X148905000Y-93400000D01*
X148905000Y-102322668D01*
X148797808Y-102429673D01*
X148655162Y-102773201D01*
X148654838Y-103145167D01*
X148796883Y-103488943D01*
X149059673Y-103752192D01*
X149403201Y-103894838D01*
X149495000Y-103894918D01*
X149495000Y-105490000D01*
X149547143Y-105752138D01*
X149695632Y-105974368D01*
X149926619Y-106205355D01*
X149921673Y-106210301D01*
X149825000Y-106443690D01*
X149825000Y-106536250D01*
X149983750Y-106695000D01*
X150471205Y-106695000D01*
X150527862Y-106732857D01*
X150790000Y-106785000D01*
X150907000Y-106785000D01*
X150907000Y-106945000D01*
X150887000Y-106945000D01*
X150887000Y-107546250D01*
X151045750Y-107705000D01*
X151186309Y-107705000D01*
X151297283Y-107659033D01*
X151308110Y-107666431D01*
X151445805Y-107694315D01*
X151546883Y-107938943D01*
X151555000Y-107947074D01*
X151555000Y-109640000D01*
X151607143Y-109902138D01*
X151755632Y-110124368D01*
X152045000Y-110413736D01*
X152045000Y-110520000D01*
X152097143Y-110782138D01*
X152245632Y-111004368D01*
X153170341Y-111929077D01*
X153115632Y-111965632D01*
X152265632Y-112815632D01*
X152117143Y-113037862D01*
X152065000Y-113300000D01*
X152065000Y-115926264D01*
X151676264Y-116315000D01*
X148185000Y-116315000D01*
X148185000Y-107103750D01*
X149825000Y-107103750D01*
X149825000Y-107196310D01*
X149921673Y-107429699D01*
X150100302Y-107608327D01*
X150333691Y-107705000D01*
X150474250Y-107705000D01*
X150633000Y-107546250D01*
X150633000Y-106945000D01*
X149983750Y-106945000D01*
X149825000Y-107103750D01*
X148185000Y-107103750D01*
X148185000Y-90185000D01*
X151836264Y-90185000D01*
X149105632Y-92915632D01*
X149105632Y-92915632D01*
G37*
X149105632Y-92915632D02*
X148957143Y-93137862D01*
X148905000Y-93400000D01*
X148905000Y-102322668D01*
X148797808Y-102429673D01*
X148655162Y-102773201D01*
X148654838Y-103145167D01*
X148796883Y-103488943D01*
X149059673Y-103752192D01*
X149403201Y-103894838D01*
X149495000Y-103894918D01*
X149495000Y-105490000D01*
X149547143Y-105752138D01*
X149695632Y-105974368D01*
X149926619Y-106205355D01*
X149921673Y-106210301D01*
X149825000Y-106443690D01*
X149825000Y-106536250D01*
X149983750Y-106695000D01*
X150471205Y-106695000D01*
X150527862Y-106732857D01*
X150790000Y-106785000D01*
X150907000Y-106785000D01*
X150907000Y-106945000D01*
X150887000Y-106945000D01*
X150887000Y-107546250D01*
X151045750Y-107705000D01*
X151186309Y-107705000D01*
X151297283Y-107659033D01*
X151308110Y-107666431D01*
X151445805Y-107694315D01*
X151546883Y-107938943D01*
X151555000Y-107947074D01*
X151555000Y-109640000D01*
X151607143Y-109902138D01*
X151755632Y-110124368D01*
X152045000Y-110413736D01*
X152045000Y-110520000D01*
X152097143Y-110782138D01*
X152245632Y-111004368D01*
X153170341Y-111929077D01*
X153115632Y-111965632D01*
X152265632Y-112815632D01*
X152117143Y-113037862D01*
X152065000Y-113300000D01*
X152065000Y-115926264D01*
X151676264Y-116315000D01*
X148185000Y-116315000D01*
X148185000Y-107103750D01*
X149825000Y-107103750D01*
X149825000Y-107196310D01*
X149921673Y-107429699D01*
X150100302Y-107608327D01*
X150333691Y-107705000D01*
X150474250Y-107705000D01*
X150633000Y-107546250D01*
X150633000Y-106945000D01*
X149983750Y-106945000D01*
X149825000Y-107103750D01*
X148185000Y-107103750D01*
X148185000Y-90185000D01*
X151836264Y-90185000D01*
X149105632Y-92915632D01*
G36*
X158233750Y-108910000D02*
X158475734Y-108910000D01*
X158710000Y-108957440D01*
X159125000Y-108957440D01*
X159125000Y-110584908D01*
X159044833Y-110584838D01*
X158701057Y-110726883D01*
X158437808Y-110989673D01*
X158295162Y-111333201D01*
X158295029Y-111486235D01*
X158016264Y-111765000D01*
X155893736Y-111765000D01*
X156174368Y-111484368D01*
X156322857Y-111262138D01*
X156375000Y-111000000D01*
X156375000Y-110413736D01*
X156998870Y-109789866D01*
X157083690Y-109825000D01*
X157224250Y-109825000D01*
X157383000Y-109666250D01*
X157383000Y-109405736D01*
X157637000Y-109151736D01*
X157637000Y-109666250D01*
X157795750Y-109825000D01*
X157936310Y-109825000D01*
X158169699Y-109728327D01*
X158250000Y-109648025D01*
X158350301Y-109748327D01*
X158583690Y-109845000D01*
X158724250Y-109845000D01*
X158883000Y-109686250D01*
X158883000Y-109110000D01*
X158306250Y-109110000D01*
X158286250Y-109090000D01*
X157698736Y-109090000D01*
X157860867Y-108927869D01*
X158045317Y-108893162D01*
X158050231Y-108890000D01*
X158213750Y-108890000D01*
X158233750Y-108910000D01*
X158233750Y-108910000D01*
G37*
X158233750Y-108910000D02*
X158475734Y-108910000D01*
X158710000Y-108957440D01*
X159125000Y-108957440D01*
X159125000Y-110584908D01*
X159044833Y-110584838D01*
X158701057Y-110726883D01*
X158437808Y-110989673D01*
X158295162Y-111333201D01*
X158295029Y-111486235D01*
X158016264Y-111765000D01*
X155893736Y-111765000D01*
X156174368Y-111484368D01*
X156322857Y-111262138D01*
X156375000Y-111000000D01*
X156375000Y-110413736D01*
X156998870Y-109789866D01*
X157083690Y-109825000D01*
X157224250Y-109825000D01*
X157383000Y-109666250D01*
X157383000Y-109405736D01*
X157637000Y-109151736D01*
X157637000Y-109666250D01*
X157795750Y-109825000D01*
X157936310Y-109825000D01*
X158169699Y-109728327D01*
X158250000Y-109648025D01*
X158350301Y-109748327D01*
X158583690Y-109845000D01*
X158724250Y-109845000D01*
X158883000Y-109686250D01*
X158883000Y-109110000D01*
X158306250Y-109110000D01*
X158286250Y-109090000D01*
X157698736Y-109090000D01*
X157860867Y-108927869D01*
X158045317Y-108893162D01*
X158050231Y-108890000D01*
X158213750Y-108890000D01*
X158233750Y-108910000D01*
G36*
X152975632Y-109374368D02*
X153055000Y-109453736D01*
X153055000Y-109467000D01*
X153035736Y-109467000D01*
X152925000Y-109356264D01*
X152925000Y-109298592D01*
X152975632Y-109374368D01*
X152975632Y-109374368D01*
G37*
X152975632Y-109374368D02*
X153055000Y-109453736D01*
X153055000Y-109467000D01*
X153035736Y-109467000D01*
X152925000Y-109356264D01*
X152925000Y-109298592D01*
X152975632Y-109374368D01*
M02*
