G04 #@! TF.FileFunction,Soldermask,Bot*
%FSLAX46Y46*%
G04 Gerber Fmt 4.6, Leading zero omitted, Abs format (unit mm)*
G04 Created by KiCad (PCBNEW 4.0.5+dfsg1-4) date Tue Jul 10 09:58:08 2018*
%MOMM*%
%LPD*%
G01*
G04 APERTURE LIST*
%ADD10C,0.100000*%
%ADD11R,0.500000X0.600000*%
%ADD12R,0.600000X0.500000*%
%ADD13R,0.400000X0.600000*%
%ADD14R,0.600000X0.400000*%
%ADD15C,0.254000*%
%ADD16C,1.998980*%
G04 APERTURE END LIST*
D10*
D11*
X152930000Y-108220000D03*
X152930000Y-109320000D03*
D12*
X151860000Y-106820000D03*
X150760000Y-106820000D03*
D13*
X160550000Y-103270000D03*
X159650000Y-103270000D03*
X159680000Y-101500000D03*
X160580000Y-101500000D03*
X160550000Y-104970000D03*
X159650000Y-104970000D03*
X151975000Y-102175000D03*
X151075000Y-102175000D03*
X151970000Y-103790000D03*
X151070000Y-103790000D03*
X151070000Y-105310000D03*
X151970000Y-105310000D03*
X159710000Y-106590000D03*
X160610000Y-106590000D03*
D14*
X156030000Y-109030000D03*
X156030000Y-108130000D03*
X160490000Y-108120000D03*
X160490000Y-109020000D03*
X159010000Y-108110000D03*
X159010000Y-109010000D03*
X157510000Y-108990000D03*
X157510000Y-108090000D03*
X154440000Y-108120000D03*
X154440000Y-109020000D03*
D15*
X153210000Y-101880000D03*
X153710000Y-101880000D03*
X154210000Y-101880000D03*
X154710000Y-101880000D03*
X155210000Y-101880000D03*
X155710000Y-101880000D03*
X156210000Y-101880000D03*
X156710000Y-101880000D03*
X157210000Y-101880000D03*
X157710000Y-101880000D03*
X158210000Y-101880000D03*
X153210000Y-102380000D03*
X153710000Y-102380000D03*
X154210000Y-102380000D03*
X154710000Y-102380000D03*
X155210000Y-102380000D03*
X155710000Y-102380000D03*
X156210000Y-102380000D03*
X156710000Y-102380000D03*
X157210000Y-102380000D03*
X157710000Y-102380000D03*
X158210000Y-102380000D03*
X153210000Y-102880000D03*
X153710000Y-102880000D03*
X157710000Y-102880000D03*
X158210000Y-102880000D03*
X153210000Y-103380000D03*
X153710000Y-103380000D03*
X155210000Y-103380000D03*
X155710000Y-103380000D03*
X156210000Y-103380000D03*
X156710000Y-103380000D03*
X157710000Y-103380000D03*
X158210000Y-103380000D03*
X153210000Y-103880000D03*
X153710000Y-103880000D03*
X154710000Y-103880000D03*
X155210000Y-103880000D03*
X155710000Y-103880000D03*
X156210000Y-103880000D03*
X156710000Y-103880000D03*
X157710000Y-103880000D03*
X158210000Y-103880000D03*
X153210000Y-104380000D03*
X153710000Y-104380000D03*
X154710000Y-104380000D03*
X155210000Y-104380000D03*
X155710000Y-104380000D03*
X156210000Y-104380000D03*
X156710000Y-104380000D03*
X157710000Y-104380000D03*
X158210000Y-104380000D03*
X153210000Y-104880000D03*
X153710000Y-104880000D03*
X154710000Y-104880000D03*
X155210000Y-104880000D03*
X155710000Y-104880000D03*
X156210000Y-104880000D03*
X156710000Y-104880000D03*
X157710000Y-104880000D03*
X158210000Y-104880000D03*
X153210000Y-105380000D03*
X153710000Y-105380000D03*
X154710000Y-105380000D03*
X155210000Y-105380000D03*
X155710000Y-105380000D03*
X156210000Y-105380000D03*
X156710000Y-105380000D03*
X157710000Y-105380000D03*
X158210000Y-105380000D03*
X153210000Y-105880000D03*
X153710000Y-105880000D03*
X157710000Y-105880000D03*
X158210000Y-105880000D03*
X153210000Y-106380000D03*
X153710000Y-106380000D03*
X154210000Y-106380000D03*
X154710000Y-106380000D03*
X155210000Y-106380000D03*
X155710000Y-106380000D03*
X156210000Y-106380000D03*
X156710000Y-106380000D03*
X157210000Y-106380000D03*
X157710000Y-106380000D03*
X158210000Y-106380000D03*
X153210000Y-106880000D03*
X153710000Y-106880000D03*
X154210000Y-106880000D03*
X154710000Y-106880000D03*
X155210000Y-106880000D03*
X155710000Y-106880000D03*
X156210000Y-106880000D03*
X156710000Y-106880000D03*
X157210000Y-106880000D03*
X157710000Y-106880000D03*
X158210000Y-106880000D03*
D16*
X151260000Y-94490000D03*
X151260000Y-97030000D03*
M02*
